<mxfile host="app.diagrams.net" agent="Mozilla/5.0 (Macintosh; Intel Mac OS X 10_15_7) AppleWebKit/537.36 (KHTML, like Gecko) Chrome/131.0.0.0 Safari/537.36" version="25.0.3">
  <diagram name="Page-1" id="-xyUB6hugy8d4F51cqs6">
    <mxGraphModel dx="1050" dy="574" grid="1" gridSize="10" guides="1" tooltips="1" connect="1" arrows="1" fold="1" page="1" pageScale="1" pageWidth="700" pageHeight="360" math="0" shadow="0">
      <root>
        <mxCell id="0" />
        <mxCell id="1" parent="0" />
        <mxCell id="UCGLuaTIRrx1fYa8OUf0-1" value="" style="rounded=1;whiteSpace=wrap;html=1;fillColor=#d0cee2;strokeColor=#56517e;dashed=1;dashPattern=12 12;" vertex="1" parent="1">
          <mxGeometry x="170" y="70" width="400" height="180" as="geometry" />
        </mxCell>
        <mxCell id="UCGLuaTIRrx1fYa8OUf0-2" value="AAU MINER" style="text;html=1;align=center;verticalAlign=middle;whiteSpace=wrap;rounded=0;fontStyle=1;fontSize=20;" vertex="1" parent="1">
          <mxGeometry x="310" y="30" width="120" height="30" as="geometry" />
        </mxCell>
        <mxCell id="UCGLuaTIRrx1fYa8OUf0-3" value="&lt;b&gt;Inference&lt;/b&gt;" style="text;html=1;align=center;verticalAlign=middle;whiteSpace=wrap;rounded=0;" vertex="1" parent="1">
          <mxGeometry x="340" y="70" width="60" height="30" as="geometry" />
        </mxCell>
        <mxCell id="UCGLuaTIRrx1fYa8OUf0-4" value="" style="endArrow=classic;html=1;rounded=0;entryX=0;entryY=0.5;entryDx=0;entryDy=0;" edge="1" parent="1" target="UCGLuaTIRrx1fYa8OUf0-1">
          <mxGeometry width="50" height="50" relative="1" as="geometry">
            <mxPoint x="110" y="200" as="sourcePoint" />
            <mxPoint x="370" y="150" as="targetPoint" />
          </mxGeometry>
        </mxCell>
        <mxCell id="UCGLuaTIRrx1fYa8OUf0-5" value="Event Log" style="text;html=1;align=center;verticalAlign=middle;whiteSpace=wrap;rounded=0;rotation=328;direction=west;" vertex="1" parent="1">
          <mxGeometry x="100" y="150" width="70" height="30" as="geometry" />
        </mxCell>
        <mxCell id="UCGLuaTIRrx1fYa8OUf0-6" value="" style="endArrow=classic;html=1;rounded=0;entryX=0;entryY=0.5;entryDx=0;entryDy=0;" edge="1" parent="1">
          <mxGeometry width="50" height="50" relative="1" as="geometry">
            <mxPoint x="570" y="160" as="sourcePoint" />
            <mxPoint x="630" y="200" as="targetPoint" />
          </mxGeometry>
        </mxCell>
        <mxCell id="UCGLuaTIRrx1fYa8OUf0-7" value="Petri net" style="text;html=1;align=center;verticalAlign=middle;whiteSpace=wrap;rounded=0;rotation=34;direction=west;flipV=1;flipH=1;" vertex="1" parent="1">
          <mxGeometry x="570" y="150" width="70" height="30" as="geometry" />
        </mxCell>
      </root>
    </mxGraphModel>
  </diagram>
</mxfile>
